<?xml version="1.0" encoding="iso-8859-1"?>
<svg xmlns="http://www.w3.org/2000/svg" xmlns:xlink="http://www.w3.org/1999/xlink" version="1.1" viewBox="0 0 490 490" enable-background="new 0 0 490 490" width="512px" height="512px">
  <g>
    <g>
      <path d="m405.5,40.75v-35.5h-20.8v35.4h-129.3v-35.4h-20.8v35.4h-129.3v-35.4h-20.8v35.4h-84.5v444.1h490v-444h-84.5zm-384.6,20.8h63.6v50h20.8v-50h129.3v50h20.8v-50h129.3v50h20.8v-50h63.6v132.4h-448.2v-132.4zm448.3,402.4h-448.3 2.13163e-14v-249.1h448.3v249.1z" fill="#333333"/>
      <rect width="50" x="82.4" y="266.95" height="20.8" fill="#333333"/>
      <rect width="50" x="82.4" y="336.75" height="20.8" fill="#333333"/>
      <rect width="50" x="82.4" y="405.55" height="20.8" fill="#333333"/>
      <rect width="50" x="220" y="266.95" height="20.8" fill="#333333"/>
      <rect width="50" x="220" y="336.75" height="20.8" fill="#333333"/>
      <rect width="50" x="220" y="405.55" height="20.8" fill="#333333"/>
      <rect width="50" x="356.5" y="266.95" height="20.8" fill="#333333"/>
      <rect width="50" x="356.5" y="336.75" height="20.8" fill="#333333"/>
      <rect width="50" x="356.5" y="405.55" height="20.8" fill="#333333"/>
    </g>
  </g>
</svg>
