<?xml version="1.0" encoding="iso-8859-1"?>
<!-- Generator: Adobe Illustrator 19.0.0, SVG Export Plug-In . SVG Version: 6.00 Build 0)  -->
<svg xmlns="http://www.w3.org/2000/svg" xmlns:xlink="http://www.w3.org/1999/xlink" version="1.1" id="Layer_1" x="0px" y="0px" viewBox="0 0 460 460" style="enable-background:new 0 0 460 460;" xml:space="preserve" width="512" height="512">
<g id="XMLID_813_">
	<rect id="XMLID_837_" y="76.667" style="fill:#F0F0F0;" width="460" height="306.667"/>
	<rect id="XMLID_814_" x="230" y="76.667" style="fill:#D80027;" width="230" height="51.111"/>
	<polygon id="XMLID_838_" style="fill:#D80027;" points="230,230 0,230 0,230 460,230 460,178.889 230,178.889  "/>
	<rect id="XMLID_1350_" y="281.111" style="fill:#D80027;" width="460" height="51.111"/>
	<path id="XMLID_1390_" style="fill:#0052B4;" d="M230,178.889v-51.111V76.667H0v51.111v51.111V230h230V178.889z"/>
	<g id="XMLID_1010_">
		<polygon id="XMLID_1400_" style="fill:#F0F0F0;" points="130.305,174.439 144.024,164.477 157.736,174.439 152.494,158.314     166.213,148.352 149.258,148.352 144.024,132.228 138.783,148.352 121.828,148.352 135.546,158.314   "/>
		<polygon id="XMLID_1401_" style="fill:#F0F0F0;" points="152.494,205.45 166.213,195.489 149.258,195.489 144.024,179.364     138.783,195.489 121.828,195.489 135.546,205.45 130.305,221.575 144.024,211.613 157.736,221.575   "/>
		<polygon id="XMLID_1402_" style="fill:#F0F0F0;" points="210.535,205.45 224.254,195.489 207.299,195.489 202.065,179.364     196.823,195.489 179.868,195.489 193.587,205.45 188.346,221.575 202.065,211.613 215.776,221.575   "/>
		<polygon id="XMLID_1549_" style="fill:#F0F0F0;" points="188.346,174.439 202.065,164.477 215.776,174.439 210.535,158.314     224.254,148.352 207.299,148.352 202.065,132.228 196.823,148.352 179.868,148.352 193.587,158.314   "/>
		<polygon id="XMLID_1550_" style="fill:#F0F0F0;" points="94.454,205.45 108.172,195.489 91.217,195.489 85.983,179.364     80.742,195.489 63.787,195.489 77.506,205.45 72.264,221.575 85.983,211.613 99.695,221.575   "/>
		<polygon id="XMLID_1551_" style="fill:#F0F0F0;" points="72.264,174.439 85.983,164.477 99.695,174.439 94.454,158.314     108.172,148.352 91.217,148.352 85.983,132.228 80.742,148.352 63.787,148.352 77.506,158.314   "/>
		<polygon id="XMLID_1746_" style="fill:#F0F0F0;" points="130.305,127.303 144.024,117.341 157.736,127.303 152.494,111.178     166.213,101.216 149.258,101.216 144.024,85.091 138.783,101.216 121.828,101.216 135.546,111.178   "/>
		<polygon id="XMLID_1743_" style="fill:#F0F0F0;" points="188.346,127.303 202.065,117.341 215.776,127.303 210.535,111.178     224.254,101.216 207.299,101.216 202.065,85.091 196.823,101.216 179.868,101.216 193.587,111.178   "/>
		<polygon id="XMLID_857_" style="fill:#F0F0F0;" points="72.264,127.303 85.983,117.341 99.695,127.303 94.454,111.178     108.172,101.216 91.217,101.216 85.983,85.091 80.742,101.216 63.787,101.216 77.506,111.178   "/>
		<polygon id="XMLID_1056_" style="fill:#F0F0F0;" points="36.413,205.45 50.132,195.489 33.177,195.489 27.942,179.364     22.701,195.489 5.746,195.489 19.465,205.45 14.224,221.575 27.942,211.613 41.654,221.575   "/>
		<polygon id="XMLID_1051_" style="fill:#F0F0F0;" points="14.224,174.439 27.942,164.477 41.654,174.439 36.413,158.314     50.132,148.352 33.177,148.352 27.942,132.228 22.701,148.352 5.746,148.352 19.465,158.314   "/>
		<polygon id="XMLID_1009_" style="fill:#F0F0F0;" points="14.224,127.303 27.942,117.341 41.654,127.303 36.413,111.178     50.132,101.216 33.177,101.216 27.942,85.091 22.701,101.216 5.746,101.216 19.465,111.178   "/>
	</g>
</g>















</svg>
